<?xml version="1.0" encoding="UTF-8" standalone="no"?>
<!-- Generator: Adobe Illustrator 19.0.0, SVG Export Plug-In . SVG Version: 6.00 Build 0)  -->

<svg
   version="1.1"
   id="Layer_1"
   x="0px"
   y="0px"
   viewBox="0 0 2086.9343 2527.5819"
   xml:space="preserve"
   inkscape:version="1.1 (c68e22c387, 2021-05-23)"
   sodipodi:docname="forge.svg"
   width="2086.9343"
   height="2527.5818"
   inkscape:export-filename="E:\PROJECT\TOOL\FORGE\LOGO\forge.png"
   inkscape:export-xdpi="90"
   inkscape:export-ydpi="90"
   xmlns:inkscape="http://www.inkscape.org/namespaces/inkscape"
   xmlns:sodipodi="http://sodipodi.sourceforge.net/DTD/sodipodi-0.dtd"
   xmlns="http://www.w3.org/2000/svg"
   xmlns:svg="http://www.w3.org/2000/svg"
   xmlns:rdf="http://www.w3.org/1999/02/22-rdf-syntax-ns#"
   xmlns:cc="http://creativecommons.org/ns#"
   xmlns:dc="http://purl.org/dc/elements/1.1/"><metadata
   id="metadata43"><rdf:RDF><cc:Work
       rdf:about=""><dc:format>image/svg+xml</dc:format><dc:type
         rdf:resource="http://purl.org/dc/dcmitype/StillImage" /></cc:Work></rdf:RDF></metadata><defs
   id="defs41" /><sodipodi:namedview
   pagecolor="#ffffff"
   bordercolor="#666666"
   borderopacity="1"
   objecttolerance="10"
   gridtolerance="10"
   guidetolerance="10"
   inkscape:pageopacity="0"
   inkscape:pageshadow="2"
   inkscape:window-width="3840"
   inkscape:window-height="2126"
   id="namedview39"
   showgrid="false"
   inkscape:zoom="0.32593204"
   inkscape:cx="1402.1328"
   inkscape:cy="1033.9579"
   inkscape:window-x="-11"
   inkscape:window-y="-11"
   inkscape:window-maximized="1"
   inkscape:current-layer="Layer_1"
   fit-margin-top="100"
   fit-margin-left="150"
   fit-margin-right="150"
   fit-margin-bottom="50"
   inkscape:pagecheckerboard="0" /><g
   id="g9"
   transform="translate(-942.58166,2723.3958)" /><g
   id="g11"
   transform="translate(-942.58166,2723.3958)" /><g
   id="g13"
   transform="translate(-942.58166,2723.3958)" /><g
   id="g15"
   transform="translate(-942.58166,2723.3958)" /><g
   id="g17"
   transform="translate(-942.58166,2723.3958)" /><g
   id="g19"
   transform="translate(-942.58166,2723.3958)" /><g
   id="g21"
   transform="translate(-942.58166,2723.3958)" /><g
   id="g23"
   transform="translate(-942.58166,2723.3958)" /><g
   id="g25"
   transform="translate(-942.58166,2723.3958)" /><g
   id="g27"
   transform="translate(-942.58166,2723.3958)" /><g
   id="g29"
   transform="translate(-942.58166,2723.3958)" /><g
   id="g31"
   transform="translate(-942.58166,2723.3958)" /><g
   id="g33"
   transform="translate(-942.58166,2723.3958)" /><g
   id="g35"
   transform="translate(-942.58166,2723.3958)" /><g
   id="g37"
   transform="translate(-942.58166,2723.3958)" /><text
   xml:space="preserve"
   style="font-style:normal;font-weight:normal;font-size:10.7438px;line-height:0%;font-family:sans-serif;letter-spacing:0px;word-spacing:0px;fill:#ff3460;fill-opacity:1;stroke:none;stroke-width:0.895315px;stroke-linecap:butt;stroke-linejoin:miter;stroke-opacity:1"
   x="125.49061"
   y="2348.8801"
   id="text4189"><tspan
     sodipodi:role="line"
     id="tspan4191"
     x="125.49061"
     y="2348.8801"
     style="font-style:normal;font-variant:normal;font-weight:normal;font-stretch:normal;font-size:559.572px;line-height:1.25;font-family:Orbitron;-inkscape-font-specification:Orbitron;fill:#ff3460;fill-opacity:1;stroke-width:0.895315px">Forge</tspan></text>





<g
   id="g9874"
   transform="translate(-112.16396)"><path
     id="path835"
     d="m 1117.6018,104.93601 c -43.6511,11.87307 -83.1115,44.3494 -101.9687,84.50831 -5.9366,12.92069 -11.8731,25.49218 -13.2699,28.28585 -1.3969,2.79366 -19.5557,9.4286 -40.50817,14.66672 -132.3498,33.17475 -252.47732,100.22267 -352.69999,195.90563 -113.49255,108.25446 -185.42938,236.06454 -225.23909,399.84305 -2.44446,9.42861 -5.58732,15.01595 -9.07941,15.01595 -12.92068,0 -46.44465,20.25405 -66.3495,39.8097 -74.73048,75.07973 -56.57167,199.04848 36.66684,247.93758 13.26989,6.9842 26.53979,12.5715 29.68266,12.5715 3.49209,0 6.63495,5.2382 9.07941,14.6668 26.19059,108.2544 58.31772,183.3341 113.49256,266.4456 108.95287,163.7785 275.52504,282.16 464.44652,329.6523 20.95247,5.2381 39.11127,11.8731 40.50817,14.6667 1.3968,2.7935 7.3333,15.3652 13.2699,28.2858 20.9524,44.6986 66.6987,78.9209 116.9846,87.6512 64.2542,10.8254 134.445,-26.5398 163.08,-87.6512 5.9367,-12.9206 11.8731,-25.4923 13.27,-27.9366 1.0476,-2.7938 19.5556,-9.4287 40.5081,-14.6668 59.0162,-15.365 96.3814,-29.3334 153.6515,-57.6192 129.9053,-64.2544 234.6677,-156.4452 313.2395,-275.5251 52.0318,-78.921 85.2067,-157.8419 111.0482,-263.3027 2.4443,-9.4286 5.5871,-14.6668 9.0792,-14.6668 12.2224,0 54.4765,-26.1906 70.5401,-43.3018 57.6193,-63.2066 55.8733,-157.14355 -4.1905,-217.20728 -19.9049,-19.55565 -53.4289,-39.8097 -66.3496,-39.8097 -3.4921,0 -6.6349,-5.58734 -9.0792,-15.01595 -27.9367,-112.44493 -57.9687,-182.63573 -113.4927,-266.09642 -109.302,-164.12771 -272.7314,-280.41395 -464.4465,-330.00146 -20.9525,-5.23813 -39.4605,-11.87307 -40.5081,-14.66673 -1.3969,-2.44446 -7.3333,-15.01595 -13.27,-27.93664 -31.4286,-66.69871 -108.6036,-103.365539 -178.0959,-84.50831 z m 62.5082,106.85762 c 16.7619,11.52386 25.1429,24.44456 26.889,42.25415 3.4921,29.33347 -22.0002,58.31771 -51.3336,58.31771 -30.032,0 -54.8257,-28.28583 -51.3336,-58.66692 2.7938,-26.5398 26.889,-49.58752 51.3336,-49.58752 7.6826,0 17.8096,3.14287 24.4446,7.68258 z m -157.1436,132.00058 c 61.8098,96.38138 202.8897,96.7306 264.0013,1.04763 l 11.873,-18.15882 31.4287,8.381 c 175.3022,47.14307 325.1125,161.33405 417.3035,317.77919 31.7778,54.12723 53.4287,105.46078 69.8415,166.57216 l 8.0317,30.3811 -17.1111,11.17464 c -96.0322,61.4606 -96.3814,202.54059 -0.6984,263.65199 l 18.1588,11.873 -8.7302,32.1271 c -17.4604,63.2067 -37.7145,111.0482 -69.4923,165.1755 -92.191,156.4451 -242.0013,270.6361 -417.3035,317.7791 l -31.4287,8.381 -11.873,-18.1588 c -61.1116,-95.683 -202.1915,-95.3338 -263.6522,0.6984 l -11.1745,17.1113 -31.07954,-8.3811 C 743.60009,1588.022 557.12307,1402.2434 493.91644,1166.8773 l -8.38099,-30.3812 18.15881,-11.873 c 32.82555,-20.9525 56.92089,-54.1273 67.39713,-93.9369 16.76197,-62.50829 -11.87307,-133.74667 -68.09555,-169.71509 l -17.11119,-11.17464 8.03179,-30.3811 C 557.12307,584.39845 741.50485,400.7151 980.36305,335.06402 c 16.762,-4.5397 30.73035,-8.381 30.73035,-8.381 0.3492,-0.3492 5.5873,7.68258 11.873,17.11119 z M 443.28129,947.9239 c 15.71436,8.03176 27.93664,27.93663 27.93664,45.39697 0,26.53983 -25.84138,52.38123 -52.38119,52.38123 -26.5398,0 -52.38119,-25.8414 -52.38119,-52.38123 0,-16.76197 12.22227,-37.36521 27.23822,-45.04774 16.76198,-9.07945 32.47634,-9.07945 49.58752,-0.34923 z m 1473.65731,0 c 15.7145,8.03176 27.9366,27.93663 27.9366,45.39697 0,5.93656 -3.1429,17.11123 -6.9841,24.44463 -8.0318,15.7143 -27.9366,27.9366 -45.397,27.9366 -17.4604,0 -37.3652,-12.2223 -45.3971,-27.9366 -8.7302,-17.4605 -8.7302,-31.42878 0,-48.88913 12.9207,-25.49219 43.3019,-34.57156 69.8416,-20.95247 z M 1180.11,1681.2604 c 47.4923,24.0954 28.9843,99.5244 -24.4446,99.5244 -39.1112,0 -63.9051,-42.2543 -45.7463,-77.8734 13.27,-26.1906 43.3019,-35.2701 70.1909,-21.651 z"
     inkscape:connector-curvature="0"
     style="fill:#4869ff;fill-opacity:1;stroke:none;stroke-width:0.349209" /><g
     transform="matrix(0.17290367,0,0,-0.17290367,712.79026,1436.2148)"
     fill="#000000"
     stroke="none"
     id="g847"
     style="fill:#ff3460;fill-opacity:1"><path
       d="m 2020,4455 -665,-665 1218,-1217 1217,-1218 665,665 665,665 -497,497 -498,498 165,165 165,165 -223,222 -222,223 -165,-165 -165,-165 -498,498 -497,497 z"
       id="path843"
       style="fill:#ff3460;fill-opacity:1" /><path
       d="M 1054,1718 C 422,1084 84,739 66,707 -41,520 -11,292 141,141 284,-3 496,-38 680,52 739,81 830,169 1715,1052 l 970,968 -330,330 c -181,181 -332,330 -335,330 -3,0 -438,-433 -966,-962 z"
       id="path845"
       style="fill:#ff3460;fill-opacity:1" /></g></g></svg>
