<?xml version="1.0" encoding="UTF-8" standalone="no"?>
<!-- Generator: Adobe Illustrator 19.0.0, SVG Export Plug-In . SVG Version: 6.00 Build 0)  -->

<svg
   version="1.1"
   id="Layer_1"
   x="0px"
   y="0px"
   viewBox="0 0 2044.393 1800.4682"
   xml:space="preserve"
   inkscape:version="1.1 (c68e22c387, 2021-05-23)"
   sodipodi0:docname="remix.svg"
   width="2044.3931"
   height="1800.4681"
   inkscape:export-filename="E:\PROJECT\TOOL\REMIX\LOGO\remix.png"
   inkscape:export-xdpi="90"
   inkscape:export-ydpi="90"
   sodipodi:docname="remix.svg"
   xmlns:inkscape="http://www.inkscape.org/namespaces/inkscape"
   xmlns:sodipodi="http://sodipodi.sourceforge.net/DTD/sodipodi-0.dtd"
   xmlns="http://www.w3.org/2000/svg"
   xmlns:svg="http://www.w3.org/2000/svg"
   xmlns:rdf="http://www.w3.org/1999/02/22-rdf-syntax-ns#"
   xmlns:cc="http://creativecommons.org/ns#"
   xmlns:dc="http://purl.org/dc/elements/1.1/"
   xmlns:sodipodi0="http://sodipodi.sourceremix.net/DTD/sodipodi-0.dtd"><sodipodi:namedview
   id="namedview27"
   pagecolor="#ffffff"
   bordercolor="#999999"
   borderopacity="1"
   inkscape:pageshadow="0"
   inkscape:pageopacity="0"
   inkscape:pagecheckerboard="0"
   showgrid="false"
   fit-margin-top="100"
   fit-margin-left="100"
   fit-margin-right="100"
   fit-margin-bottom="100"
   inkscape:zoom="0.4213129"
   inkscape:cx="-1535.6757"
   inkscape:cy="87.820715"
   inkscape:window-width="3840"
   inkscape:window-height="2126"
   inkscape:window-x="-11"
   inkscape:window-y="-11"
   inkscape:window-maximized="1"
   inkscape:current-layer="Layer_1" /><metadata
   id="metadata43"><rdf:RDF><cc:Work
       rdf:about=""><dc:format>image/svg+xml</dc:format><dc:type
         rdf:resource="http://purl.org/dc/dcmitype/StillImage" /></cc:Work></rdf:RDF></metadata><defs
   id="defs41" /><sodipodi0:namedview
   pagecolor="#ffffff"
   bordercolor="#666666"
   borderopacity="1"
   objecttolerance="10"
   gridtolerance="10"
   guidetolerance="10"
   inkscape:pageopacity="0"
   inkscape:pageshadow="2"
   inkscape:window-width="3840"
   inkscape:window-height="2126"
   id="namedview39"
   showgrid="false"
   inkscape:zoom="0.32593204"
   inkscape:cx="1402.1328"
   inkscape:cy="1033.9579"
   inkscape:window-x="-11"
   inkscape:window-y="-11"
   inkscape:window-maximized="1"
   inkscape:current-layer="Layer_1"
   fit-margin-top="100"
   fit-margin-left="150"
   fit-margin-right="150"
   fit-margin-bottom="50"
   inkscape:pagecheckerboard="0" /><g
   id="g9"
   transform="translate(-998.84873,2134.9837)" /><g
   id="g11"
   transform="translate(-998.84873,2134.9837)" /><g
   id="g13"
   transform="translate(-998.84873,2134.9837)" /><g
   id="g15"
   transform="translate(-998.84873,2134.9837)" /><g
   id="g17"
   transform="translate(-998.84873,2134.9837)" /><g
   id="g19"
   transform="translate(-998.84873,2134.9837)" /><g
   id="g21"
   transform="translate(-998.84873,2134.9837)" /><g
   id="g23"
   transform="translate(-998.84873,2134.9837)" /><g
   id="g25"
   transform="translate(-998.84873,2134.9837)" /><g
   id="g27"
   transform="translate(-998.84873,2134.9837)" /><g
   id="g29"
   transform="translate(-998.84873,2134.9837)" /><g
   id="g31"
   transform="translate(-998.84873,2134.9837)" /><g
   id="g33"
   transform="translate(-998.84873,2134.9837)" /><g
   id="g35"
   transform="translate(-998.84873,2134.9837)" /><g
   id="g37"
   transform="translate(-998.84873,2134.9837)" /><text
   xml:space="preserve"
   style="font-style:normal;font-weight:normal;font-size:10.7438px;line-height:0%;font-family:sans-serif;letter-spacing:0px;word-spacing:0px;fill:#ff3460;fill-opacity:1;stroke:none;stroke-width:0.895315px;stroke-linecap:butt;stroke-linejoin:miter;stroke-opacity:1"
   x="69.223541"
   y="1700.4681"
   id="text4189"><tspan
     sodipodi0:role="line"
     id="tspan4191"
     x="69.223541"
     y="1700.4681"
     style="font-style:normal;font-variant:normal;font-weight:normal;font-stretch:normal;font-size:559.572px;line-height:1.25;font-family:Orbitron;-inkscape-font-specification:Orbitron;fill:#ff3460;fill-opacity:1;stroke-width:0.895315px"><tspan
   style="fill:#4869ff"
   id="tspan24997">Re</tspan>mix</tspan></text>








<path
   inkscape:connector-curvature="0"
   d="m 239.88234,893.75813 c -11.37877,0 -21.33519,9.95653 -21.33519,21.33519 0,11.37879 9.95642,21.3352 21.33519,21.3352 h 192.0168 v 49.78217 c 0,89.60771 73.96202,163.56981 163.56986,163.56981 h 830.6504 c 89.6078,0 163.5698,-73.962 163.5698,-163.56981 v -49.78217 c 0,0 1.4225,0 1.4225,0 h 213.3518 c 11.3788,0 21.3354,-9.95641 21.3354,-21.3352 0,-11.37866 -9.9566,-21.33519 -21.3354,-21.33519 h -213.3518 c 0,0 -1.4225,0 -1.4225,0 v -99.56434 c 0,0 1.4225,0 1.4225,0 h 213.3518 c 11.3788,0 21.3354,-9.95628 21.3354,-21.33507 0,-11.37891 -9.9566,-21.3352 -21.3354,-21.3352 h -213.3518 c 0,0 -1.4225,0 -1.4225,0 v -99.56433 c 0,0 1.4225,0 1.4225,0 h 213.3518 c 11.3788,0 21.3354,-9.95641 21.3354,-21.3352 0,-11.37879 -9.9566,-21.33519 -21.3354,-21.33519 h -213.3518 c 0,0 -1.4225,0 -1.4225,0 v -99.56422 c 0,0 1.4225,0 1.4225,0 h 213.3518 c 11.3788,0 21.3354,-9.9564 21.3354,-21.33519 0,-11.37879 -9.9566,-21.3352 -21.3354,-21.3352 h -213.3518 c 0,0 -1.4225,0 -1.4225,0 v -99.56433 c 0,0 1.4225,0 1.4225,0 h 213.3518 c 11.3788,0 21.3354,-9.95641 21.3354,-21.33508 0,-11.37891 -9.9566,-21.33532 -21.3354,-21.33532 h -213.3518 c 0,0 -1.4225,0 -1.4225,0 v -49.78204 c 0,-89.6079 -73.962,-163.56992 -163.5698,-163.56992 H 595.469 c -89.60784,0 -163.56986,73.96202 -163.56986,163.56992 v 49.78204 h -192.0168 c -11.37877,0 -21.33519,9.95641 -21.33519,21.33532 0,11.37867 9.95642,21.33508 21.33519,21.33508 h 192.0168 v 99.56433 h -192.0168 c -11.37877,0 -21.33519,9.95641 -21.33519,21.3352 0,11.37879 9.95642,21.33519 21.33519,21.33519 h 192.0168 v 99.56422 h -192.0168 c -11.37877,0 -21.33519,9.9564 -21.33519,21.33519 0,11.37879 9.95642,21.3352 21.33519,21.3352 h 192.0168 v 99.56433 h -192.0168 c -11.37877,0 -21.33519,9.95629 -21.33519,21.3352 0,11.37879 9.95642,21.33507 21.33519,21.33507 h 192.0168 v 99.56434 z M 474.56953,275.03742 c 0,-66.85035 54.04917,-120.89952 120.89947,-120.89952 h 830.6504 c 66.8503,0 120.8995,54.04917 120.8995,120.89952 v 711.17327 c 0,66.85031 -54.0492,120.89941 -120.8995,120.89941 H 595.469 c -66.8503,0 -120.89947,-54.0491 -120.89947,-120.89941 z"
   id="path854"
   style="fill:#4869ff;fill-opacity:1;stroke:#4869ff;stroke-width:22.93499947;stroke-miterlimit:4;stroke-dasharray:none;stroke-opacity:1" /><g
   id="g844"
   transform="translate(7.6085,-7.608445)"><path
     inkscape:connector-curvature="0"
     d="m 695.00892,505.84512 v 353.03294 c 0,12.17353 10.65185,22.82542 22.82539,22.82542 h 496.07209 c 7.6084,47.17247 48.6941,83.69304 97.3883,83.69304 54.781,0 98.9101,-44.12908 98.9101,-98.91007 0,-54.78098 -44.1291,-98.91006 -98.9101,-98.91006 -44.1291,0 -80.6498,28.91218 -94.3449,68.47625 H 740.65971 V 505.84512 c 44.12911,-10.65177 76.08467,-50.21585 76.08467,-95.86668 0,-54.78086 -44.12911,-98.91007 -98.91007,-98.91007 -54.78095,0 -98.91006,44.12921 -98.91006,98.91007 0,47.17259 33.47725,85.21491 76.08467,95.86668 z m 616.28578,307.3821 c 28.9122,0 53.2593,24.34705 53.2593,53.25923 0,28.91218 -22.8255,53.25936 -53.2593,53.25936 -30.4338,0 -53.2592,-24.34718 -53.2592,-53.25936 0,-28.91218 24.347,-53.25923 53.2592,-53.25923 z M 717.83431,356.71921 c 28.91217,0 53.25927,24.34704 53.25927,53.25923 0,28.91218 -24.3471,53.25935 -53.25927,53.25935 -28.91217,0 -53.25926,-24.34717 -53.25926,-53.25935 0,-28.91219 24.34709,-53.25923 53.25926,-53.25923 z"
     id="path856"
     style="fill:#ff3460;fill-opacity:1;stroke:#ff3460;stroke-width:22.935;stroke-miterlimit:4;stroke-dasharray:none;stroke-opacity:1" /><path
     inkscape:connector-curvature="0"
     d="m 1006.956,706.70864 c 54.781,0 98.9101,-44.12909 98.9101,-98.91007 0,-12.17352 -1.5217,-22.82529 -6.0868,-33.47719 l 143.0392,-92.8233 c 18.2604,16.73865 41.0858,27.39042 68.4762,27.39042 54.781,0 98.9101,-44.12908 98.9101,-98.91006 0,-54.78086 -44.1291,-98.91007 -98.9101,-98.91007 -54.781,0 -98.91,44.12921 -98.91,98.91007 0,12.17364 1.5217,22.82542 6.0867,33.47731 l -143.0391,92.82331 c -18.2603,-16.73866 -41.0857,-27.39056 -68.4763,-27.39056 -54.78085,0 -98.91001,44.12921 -98.91001,98.91007 0,54.78098 44.12916,98.91007 98.91001,98.91007 z m 304.3387,-349.98943 c 28.9122,0 53.2593,24.34704 53.2593,53.25923 0,28.91218 -22.8255,53.25935 -53.2593,53.25935 -30.4338,0 -53.2592,-24.34717 -53.2592,-53.25935 0,-28.91219 24.347,-53.25923 53.2592,-53.25923 z M 1006.956,554.53934 c 28.9122,0 53.2594,24.34705 53.2594,53.25923 0,28.91218 -22.8255,53.25936 -53.2594,53.25936 -30.43381,0 -53.25922,-24.34718 -53.25922,-53.25936 0,-28.91218 24.34704,-53.25923 53.25922,-53.25923 z"
     id="path858"
     style="fill:#ff3460;fill-opacity:1;stroke:#ff3460;stroke-width:22.935;stroke-miterlimit:4;stroke-dasharray:none;stroke-opacity:1" /></g></svg>
